<svg width="28" height="25" viewBox="0 0 28 25" fill="none" xmlns="http://www.w3.org/2000/svg">
<path d="M14 24.9667L12.6334 23.7333C10.283 21.5751 8.3398 19.7133 6.80389 18.148C5.26798 16.5826 4.04446 15.1833 3.13335 13.95C2.22224 12.7167 1.58335 11.6 1.21669 10.6C0.85002 9.59999 0.666687 8.58888 0.666687 7.56666C0.666687 5.56321 1.33891 3.89014 2.68335 2.54742C4.0278 1.20469 5.68891 0.533325 7.66669 0.533325C8.93335 0.533325 10.1056 0.833325 11.1834 1.43333C12.2611 2.03333 13.2 2.89999 14 4.03333C14.9334 2.83333 15.9222 1.94999 16.9667 1.38333C18.0111 0.816659 19.1334 0.533325 20.3334 0.533325C22.3111 0.533325 23.9722 1.20469 25.3167 2.54742C26.6611 3.89014 27.3334 5.56321 27.3334 7.56666C27.3334 8.58888 27.15 9.59999 26.7834 10.6C26.4167 11.6 25.7778 12.7167 24.8667 13.95C23.9556 15.1833 22.7321 16.5826 21.1962 18.148C19.6602 19.7133 17.7171 21.5751 15.3667 23.7333L14 24.9667ZM14 22.3333C16.2497 20.2668 18.101 18.4946 19.554 17.0167C21.0069 15.5389 22.1611 14.2444 23.0167 13.1333C23.8722 12.0222 24.4722 11.0318 24.8167 10.1622C25.1611 9.29247 25.3334 8.42892 25.3334 7.57149C25.3334 6.1016 24.8667 4.89444 23.9334 3.94999C23 3.00555 21.8025 2.53333 20.3409 2.53333C19.1959 2.53333 18.1362 2.88333 17.1617 3.58333C16.1872 4.28333 15.4 5.26666 14.8 6.53333H13.1667C12.5889 5.28888 11.8128 4.3111 10.8384 3.59999C9.86389 2.88888 8.80416 2.53333 7.65919 2.53333C6.19752 2.53333 5.00002 3.00555 4.06669 3.94999C3.13335 4.89444 2.66669 6.1035 2.66669 7.57719C2.66669 8.43684 2.83891 9.30555 3.18335 10.1833C3.5278 11.0611 4.1278 12.0611 4.98335 13.1833C5.83891 14.3055 7.00002 15.6 8.46669 17.0667C9.93335 18.5333 11.7778 20.2889 14 22.3333Z" fill="#372E3F"/>
</svg>
