<svg width="48" height="28" viewBox="0 0 48 28" fill="none" xmlns="http://www.w3.org/2000/svg">
<path d="M7.85 28C5.68333 28 3.83333 27.2417 2.3 25.725C0.766667 24.2083 0 22.35 0 20.15C0 17.95 0.758333 16.0917 2.275 14.575C3.79167 13.0583 5.63333 12.3 7.8 12.3L5.45 10.5H0V8H9.05L14 11L21.95 8H28.95L25.05 3H20.6V0H26.55L30.85 5.55L37.3 2.35V7.55H32.4L36.65 13.05C37.2167 12.8167 37.7833 12.6417 38.35 12.525C38.9167 12.4083 39.5 12.35 40.1 12.35C42.3 12.35 44.1667 13.1083 45.7 14.625C47.2333 16.1417 48 18 48 20.2C48 22.4 47.2333 24.25 45.7 25.75C44.1667 27.25 42.3 28 40.1 28C37.9333 28 36.0917 27.2417 34.575 25.725C33.0583 24.2083 32.3 22.3667 32.3 20.2C32.3 19.2 32.4667 18.25 32.8 17.35C33.1333 16.45 33.6333 15.6333 34.3 14.9L32.55 12.65L25.25 23.8H19.75L15.7 20.15C15.7 22.35 14.9417 24.2083 13.425 25.725C11.9083 27.2417 10.05 28 7.85 28ZM7.85 25C9.21667 25 10.3667 24.525 11.3 23.575C12.2333 22.625 12.7 21.4833 12.7 20.15C12.7 18.8167 12.2333 17.675 11.3 16.725C10.3667 15.775 9.21667 15.3 7.85 15.3C6.51667 15.3 5.375 15.7667 4.425 16.7C3.475 17.6333 3 18.7833 3 20.15C3 21.5167 3.475 22.6667 4.425 23.6C5.375 24.5333 6.51667 25 7.85 25ZM40.1 25C41.4667 25 42.625 24.5333 43.575 23.6C44.525 22.6667 45 21.5333 45 20.2C45 18.8333 44.525 17.675 43.575 16.725C42.625 15.775 41.4667 15.3 40.1 15.3C38.7667 15.3 37.6333 15.775 36.7 16.725C35.7667 17.675 35.3 18.8333 35.3 20.2C35.3 21.5333 35.7667 22.6667 36.7 23.6C37.6333 24.5333 38.7667 25 40.1 25ZM23.65 20.8L30.05 11H22.55L13.9 14.25L20.85 20.8H23.65Z" fill="#94DEB2"/>
</svg>
