<svg width="24" height="29" viewBox="0 0 24 29" fill="none" xmlns="http://www.w3.org/2000/svg">
<path d="M2 28.3333C1.46667 28.3333 1 28.1333 0.6 27.7333C0.2 27.3333 0 26.8666 0 26.3333V8.66665C0 8.13331 0.2 7.66665 0.6 7.26665C1 6.86665 1.46667 6.66665 2 6.66665H5.66667C5.66667 4.91109 6.25556 3.41665 7.43333 2.18331C8.61111 0.94998 10.0778 0.333313 11.8333 0.333313C13.5889 0.333313 15.1111 0.950813 16.4 2.18581C17.6889 3.42081 18.3333 4.91442 18.3333 6.66665H22C22.5333 6.66665 23 6.86665 23.4 7.26665C23.8 7.66665 24 8.13331 24 8.66665V26.3333C24 26.8666 23.8 27.3333 23.4 27.7333C23 28.1333 22.5333 28.3333 22 28.3333H2ZM2 26.3333H22V8.66665H2V26.3333ZM12 16.6666C13.7556 16.6666 15.2778 16.0222 16.5667 14.7333C17.8556 13.4444 18.5 11.9222 18.5 10.1666H16.5C16.5 11.3889 16.0556 12.4444 15.1667 13.3333C14.2778 14.2222 13.2222 14.6666 12 14.6666C10.7778 14.6666 9.72222 14.2222 8.83333 13.3333C7.94444 12.4444 7.5 11.3889 7.5 10.1666H5.5C5.5 11.9222 6.14444 13.4444 7.43333 14.7333C8.72222 16.0222 10.2444 16.6666 12 16.6666ZM7.66667 6.66665H16.3333C16.3333 5.44442 15.9167 4.41665 15.0833 3.58331C14.25 2.74998 13.2222 2.33331 12 2.33331C10.7778 2.33331 9.75 2.74998 8.91667 3.58331C8.08333 4.41665 7.66667 5.44442 7.66667 6.66665Z" fill="#372E3F"/>
</svg>
