<svg width="141" height="38" viewBox="0 0 141 38" fill="none" xmlns="http://www.w3.org/2000/svg">
<path d="M41.68 28.192C40.6987 28.192 39.856 28.1067 39.152 27.936C38.448 27.744 37.8613 27.424 37.392 26.976C36.944 26.5067 36.6133 25.8987 36.4 25.152C36.1867 24.384 36.08 23.4133 36.08 22.24V5.6H40.304V21.76C40.304 22.2933 40.336 22.7413 40.4 23.104C40.4853 23.4667 40.6133 23.7653 40.784 24C40.9547 24.2133 41.1893 24.3733 41.488 24.48C41.7867 24.5653 42.16 24.608 42.608 24.608C42.864 24.608 43.0773 24.608 43.248 24.608C43.4187 24.5867 43.5893 24.5653 43.76 24.544V28.064C43.632 28.0853 43.4827 28.1067 43.312 28.128C43.1627 28.1493 42.992 28.16 42.8 28.16C42.6293 28.1813 42.448 28.192 42.256 28.192C42.064 28.192 41.872 28.192 41.68 28.192ZM53.9438 28.384C52.7918 28.384 51.7038 28.2133 50.6798 27.872C49.6558 27.5093 48.7491 26.9653 47.9598 26.24C47.1918 25.5147 46.5838 24.608 46.1358 23.52C45.6878 22.432 45.4638 21.152 45.4638 19.68V19.04C45.4638 17.6533 45.6878 16.4373 46.1358 15.392C46.5838 14.3467 47.1918 13.4827 47.9598 12.8C48.7491 12.096 49.6558 11.5627 50.6798 11.2C51.7038 10.8373 52.7918 10.656 53.9438 10.656C55.0958 10.656 56.1838 10.8373 57.2078 11.2C58.2318 11.5413 59.1278 12.064 59.8958 12.768C60.6851 13.472 61.3038 14.3467 61.7518 15.392C62.1998 16.4373 62.4237 17.6533 62.4237 19.04V19.68C62.4237 21.1307 62.1998 22.4107 61.7518 23.52C61.3038 24.608 60.6851 25.5147 59.8958 26.24C59.1278 26.9653 58.2318 27.5093 57.2078 27.872C56.1838 28.2133 55.0958 28.384 53.9438 28.384ZM53.9438 24.8C54.5411 24.8 55.0958 24.6933 55.6078 24.48C56.1198 24.2667 56.5571 23.9467 56.9198 23.52C57.2824 23.072 57.5704 22.528 57.7838 21.888C57.9971 21.248 58.1038 20.512 58.1038 19.68V19.04C58.1038 18.272 57.9971 17.5893 57.7838 16.992C57.5704 16.3947 57.2824 15.8933 56.9198 15.488C56.5571 15.0827 56.1198 14.7733 55.6078 14.56C55.0958 14.3467 54.5411 14.24 53.9438 14.24C53.3464 14.24 52.7918 14.3467 52.2798 14.56C51.7678 14.7733 51.3304 15.0827 50.9678 15.488C50.6051 15.8933 50.3171 16.3947 50.1038 16.992C49.8904 17.5893 49.7838 18.272 49.7838 19.04V19.68C49.7838 20.5333 49.8904 21.28 50.1038 21.92C50.3171 22.56 50.6051 23.0933 50.9678 23.52C51.3304 23.9467 51.7678 24.2667 52.2798 24.48C52.7918 24.6933 53.3464 24.8 53.9438 24.8ZM73.1313 28.384C71.9793 28.384 70.8913 28.2133 69.8673 27.872C68.8433 27.5093 67.9366 26.9653 67.1473 26.24C66.3793 25.5147 65.7713 24.608 65.3233 23.52C64.8753 22.432 64.6513 21.152 64.6513 19.68V19.04C64.6513 17.6533 64.8753 16.4373 65.3233 15.392C65.7713 14.3467 66.3793 13.4827 67.1473 12.8C67.9366 12.096 68.8433 11.5627 69.8673 11.2C70.8913 10.8373 71.9793 10.656 73.1313 10.656C74.2833 10.656 75.3713 10.8373 76.3953 11.2C77.4193 11.5413 78.3153 12.064 79.0833 12.768C79.8726 13.472 80.4913 14.3467 80.9393 15.392C81.3873 16.4373 81.6112 17.6533 81.6112 19.04V19.68C81.6112 21.1307 81.3873 22.4107 80.9393 23.52C80.4913 24.608 79.8726 25.5147 79.0833 26.24C78.3153 26.9653 77.4193 27.5093 76.3953 27.872C75.3713 28.2133 74.2833 28.384 73.1313 28.384ZM73.1313 24.8C73.7286 24.8 74.2833 24.6933 74.7953 24.48C75.3073 24.2667 75.7446 23.9467 76.1073 23.52C76.4699 23.072 76.7579 22.528 76.9713 21.888C77.1846 21.248 77.2913 20.512 77.2913 19.68V19.04C77.2913 18.272 77.1846 17.5893 76.9713 16.992C76.7579 16.3947 76.4699 15.8933 76.1073 15.488C75.7446 15.0827 75.3073 14.7733 74.7953 14.56C74.2833 14.3467 73.7286 14.24 73.1313 14.24C72.5339 14.24 71.9793 14.3467 71.4673 14.56C70.9553 14.7733 70.5179 15.0827 70.1553 15.488C69.7926 15.8933 69.5046 16.3947 69.2913 16.992C69.0779 17.5893 68.9713 18.272 68.9713 19.04V19.68C68.9713 20.5333 69.0779 21.28 69.2913 21.92C69.5046 22.56 69.7926 23.0933 70.1553 23.52C70.5179 23.9467 70.9553 24.2667 71.4673 24.48C71.9793 24.6933 72.5339 24.8 73.1313 24.8ZM92.3188 28.384C91.1668 28.384 90.0788 28.2133 89.0548 27.872C88.0308 27.5093 87.1241 26.9653 86.3348 26.24C85.5668 25.5147 84.9588 24.608 84.5108 23.52C84.0628 22.432 83.8388 21.152 83.8388 19.68V19.04C83.8388 17.6533 84.0628 16.4373 84.5108 15.392C84.9588 14.3467 85.5668 13.4827 86.3348 12.8C87.1241 12.096 88.0308 11.5627 89.0548 11.2C90.0788 10.8373 91.1668 10.656 92.3188 10.656C93.4708 10.656 94.5588 10.8373 95.5828 11.2C96.6068 11.5413 97.5028 12.064 98.2708 12.768C99.0601 13.472 99.6788 14.3467 100.127 15.392C100.575 16.4373 100.799 17.6533 100.799 19.04V19.68C100.799 21.1307 100.575 22.4107 100.127 23.52C99.6788 24.608 99.0601 25.5147 98.2708 26.24C97.5028 26.9653 96.6068 27.5093 95.5828 27.872C94.5588 28.2133 93.4708 28.384 92.3188 28.384ZM92.3188 24.8C92.9161 24.8 93.4708 24.6933 93.9828 24.48C94.4948 24.2667 94.9321 23.9467 95.2948 23.52C95.6574 23.072 95.9454 22.528 96.1588 21.888C96.3721 21.248 96.4788 20.512 96.4788 19.68V19.04C96.4788 18.272 96.3721 17.5893 96.1588 16.992C95.9454 16.3947 95.6574 15.8933 95.2948 15.488C94.9321 15.0827 94.4948 14.7733 93.9828 14.56C93.4708 14.3467 92.9161 14.24 92.3188 14.24C91.7214 14.24 91.1668 14.3467 90.6548 14.56C90.1428 14.7733 89.7054 15.0827 89.3428 15.488C88.9801 15.8933 88.6921 16.3947 88.4788 16.992C88.2654 17.5893 88.1588 18.272 88.1588 19.04V19.68C88.1588 20.5333 88.2654 21.28 88.4788 21.92C88.6921 22.56 88.9801 23.0933 89.3428 23.52C89.7054 23.9467 90.1428 24.2667 90.6548 24.48C91.1668 24.6933 91.7214 24.8 92.3188 24.8ZM111.506 28.384C110.354 28.384 109.266 28.2133 108.242 27.872C107.218 27.5093 106.312 26.9653 105.522 26.24C104.754 25.5147 104.146 24.608 103.698 23.52C103.25 22.432 103.026 21.152 103.026 19.68V19.04C103.026 17.6533 103.25 16.4373 103.698 15.392C104.146 14.3467 104.754 13.4827 105.522 12.8C106.312 12.096 107.218 11.5627 108.242 11.2C109.266 10.8373 110.354 10.656 111.506 10.656C112.658 10.656 113.746 10.8373 114.77 11.2C115.794 11.5413 116.69 12.064 117.458 12.768C118.248 13.472 118.866 14.3467 119.314 15.392C119.762 16.4373 119.986 17.6533 119.986 19.04V19.68C119.986 21.1307 119.762 22.4107 119.314 23.52C118.866 24.608 118.248 25.5147 117.458 26.24C116.69 26.9653 115.794 27.5093 114.77 27.872C113.746 28.2133 112.658 28.384 111.506 28.384ZM111.506 24.8C112.104 24.8 112.658 24.6933 113.17 24.48C113.682 24.2667 114.12 23.9467 114.482 23.52C114.845 23.072 115.133 22.528 115.346 21.888C115.56 21.248 115.666 20.512 115.666 19.68V19.04C115.666 18.272 115.56 17.5893 115.346 16.992C115.133 16.3947 114.845 15.8933 114.482 15.488C114.12 15.0827 113.682 14.7733 113.17 14.56C112.658 14.3467 112.104 14.24 111.506 14.24C110.909 14.24 110.354 14.3467 109.842 14.56C109.33 14.7733 108.893 15.0827 108.53 15.488C108.168 15.8933 107.88 16.3947 107.666 16.992C107.453 17.5893 107.346 18.272 107.346 19.04V19.68C107.346 20.5333 107.453 21.28 107.666 21.92C107.88 22.56 108.168 23.0933 108.53 23.52C108.893 23.9467 109.33 24.2667 109.842 24.48C110.354 24.6933 110.909 24.8 111.506 24.8ZM123.014 34.4V11.04H126.918V13.632C127.387 12.8 128.091 12.096 129.03 11.52C129.99 10.944 131.131 10.656 132.454 10.656C134.758 10.656 136.528 11.36 137.766 12.768C139.024 14.176 139.654 16.2667 139.654 19.04V19.68C139.654 21.1093 139.483 22.3787 139.142 23.488C138.8 24.576 138.31 25.4827 137.67 26.208C137.051 26.912 136.294 27.456 135.398 27.84C134.523 28.2027 133.542 28.384 132.454 28.384C131.323 28.384 130.31 28.1387 129.414 27.648C128.518 27.136 127.792 26.4427 127.238 25.568V34.4H123.014ZM131.43 24.832C131.984 24.832 132.496 24.7253 132.966 24.512C133.456 24.2773 133.872 23.9467 134.214 23.52C134.576 23.0933 134.854 22.56 135.046 21.92C135.238 21.28 135.334 20.5333 135.334 19.68V19.04C135.334 18.2293 135.238 17.5253 135.046 16.928C134.875 16.3307 134.608 15.8293 134.246 15.424C133.904 15.0187 133.488 14.72 132.998 14.528C132.528 14.3147 132.006 14.208 131.43 14.208C130.832 14.208 130.278 14.304 129.766 14.496C129.254 14.6667 128.806 14.944 128.422 15.328C128.059 15.6907 127.771 16.128 127.558 16.64C127.344 17.152 127.238 17.7387 127.238 18.4V20.32C127.238 21.024 127.344 21.6533 127.558 22.208C127.771 22.7627 128.059 23.2427 128.422 23.648C128.806 24.032 129.254 24.3307 129.766 24.544C130.278 24.736 130.832 24.832 131.43 24.832Z" fill="#372E3F"/>
<g clip-path="url(#clip0_2_13)">
<path d="M12 9.00001C13.4822 8.9985 14.9462 9.32718 16.2856 9.96217C17.6249 10.5972 18.806 11.5225 19.743 12.671L13.414 19L19.743 25.329C18.806 26.4775 17.6249 27.4029 16.2856 28.0378C14.9462 28.6728 13.4822 29.0015 12 29C6.477 29 2 24.523 2 19C2 13.477 6.477 9.00001 12 9.00001ZM12 12C11.6022 12 11.2206 12.158 10.9393 12.4393C10.658 12.7206 10.5 13.1022 10.5 13.5C10.5 13.8978 10.658 14.2794 10.9393 14.5607C11.2206 14.842 11.6022 15 12 15C12.3978 15 12.7794 14.842 13.0607 14.5607C13.342 14.2794 13.5 13.8978 13.5 13.5C13.5 13.1022 13.342 12.7206 13.0607 12.4393C12.7794 12.158 12.3978 12 12 12Z" fill="#65BCD8"/>
</g>
<defs>
<clipPath id="clip0_2_13">
<rect width="24" height="24" fill="white" transform="translate(0 7)"/>
</clipPath>
</defs>
</svg>
